<svg width="50" height="51" viewBox="0 0 50 51" fill="none" xmlns="http://www.w3.org/2000/svg">
<path d="M25 47.375H21.875V39.5625C21.8738 38.3197 21.3795 37.1281 20.5007 36.2493C19.6219 35.3705 18.4303 34.8762 17.1875 34.875H10.9375C9.69468 34.8762 8.50312 35.3705 7.62431 36.2493C6.7455 37.1281 6.25124 38.3197 6.25 39.5625V47.375H3.125V39.5625C3.12748 37.4913 3.95138 35.5056 5.41597 34.041C6.88056 32.5764 8.86626 31.7525 10.9375 31.75H17.1875C19.2587 31.7525 21.2444 32.5764 22.709 34.041C24.1736 35.5056 24.9975 37.4913 25 39.5625V47.375ZM14.0625 16.125C14.9896 16.125 15.8959 16.3999 16.6667 16.915C17.4376 17.4301 18.0384 18.1621 18.3932 19.0187C18.748 19.8752 18.8408 20.8177 18.6599 21.727C18.4791 22.6363 18.0326 23.4715 17.3771 24.1271C16.7215 24.7826 15.8863 25.2291 14.977 25.4099C14.0677 25.5908 13.1252 25.498 12.2687 25.1432C11.4121 24.7884 10.6801 24.1876 10.165 23.4167C9.64992 22.6459 9.375 21.7396 9.375 20.8125C9.375 19.5693 9.86886 18.377 10.7479 17.4979C11.627 16.6189 12.8193 16.125 14.0625 16.125ZM14.0625 13C12.5173 13 11.0069 13.4582 9.72211 14.3166C8.43735 15.1751 7.436 16.3952 6.84469 17.8228C6.25338 19.2503 6.09867 20.8212 6.40012 22.3366C6.70156 23.8521 7.44563 25.2442 8.53823 26.3368C9.63083 27.4294 11.0229 28.1734 12.5384 28.4749C14.0538 28.7763 15.6247 28.6216 17.0522 28.0303C18.4798 27.439 19.6999 26.4377 20.5584 25.1529C21.4168 23.8681 21.875 22.3577 21.875 20.8125C21.875 19.7865 21.6729 18.7706 21.2803 17.8228C20.8877 16.8749 20.3122 16.0137 19.5868 15.2882C18.8613 14.5628 18.0001 13.9873 17.0522 13.5947C16.1044 13.2021 15.0885 13 14.0625 13Z" fill="white"/>
<path d="M36.875 1.75C31.7043 1.75 27.5 5.95434 27.5 11.125C27.5 16.2958 31.7043 20.5 36.875 20.5C42.0457 20.5 46.25 16.2958 46.25 11.125C46.25 5.95434 42.0457 1.75 36.875 1.75ZM36.875 2.92188C37.1461 2.92188 37.443 3.05885 37.7814 3.42542C38.1198 3.79198 38.4642 4.37559 38.7564 5.12372C39.0295 5.82315 39.2521 6.67159 39.4179 7.60938H34.3321C34.4979 6.67159 34.7205 5.82315 34.9936 5.12372C35.2858 4.37559 35.6302 3.79198 35.9686 3.42542C36.307 3.05885 36.6039 2.92188 36.875 2.92188ZM34.648 3.23315C34.3677 3.65517 34.1186 4.14286 33.9018 4.698C33.5729 5.54028 33.3115 6.52432 33.1328 7.60938H29.4684C30.4731 5.49167 32.3529 3.87785 34.648 3.23315ZM39.102 3.23315C41.3971 3.87785 43.2769 5.49167 44.2816 7.60938H40.6172C40.4385 6.52432 40.1771 5.54028 39.8482 4.698C39.6314 4.14286 39.3823 3.65517 39.102 3.23315ZM29.0152 8.78125H32.9932C32.9144 9.53416 32.8581 10.3099 32.8581 11.125C32.8581 11.9402 32.9144 12.7155 32.9932 13.4688H29.0152C28.7943 12.7254 28.6719 11.941 28.6719 11.125C28.6719 10.3098 28.7947 9.52399 29.0152 8.78125ZM34.1742 8.78125H39.5758C39.6596 9.52913 39.72 10.3056 39.72 11.125C39.72 11.9452 39.6598 12.7198 39.5758 13.4688H34.1742C34.0902 12.7198 34.03 11.9452 34.03 11.125C34.03 10.3056 34.0904 9.52913 34.1742 8.78125ZM40.7568 8.78125H44.7348C44.9553 9.52399 45.0781 10.3098 45.0781 11.125C45.0781 11.941 44.9557 12.7254 44.7348 13.4688H40.7568C40.8356 12.7155 40.8919 11.9402 40.8919 11.125C40.8919 10.3099 40.8356 9.53416 40.7568 8.78125ZM29.4707 14.6406H33.1328C33.3115 15.7263 33.5729 16.712 33.9018 17.5543C34.1181 18.1082 34.3662 18.5931 34.6457 19.0146C32.3525 18.3697 30.4754 16.7563 29.4707 14.6406ZM34.3344 14.6406H39.4156C39.2499 15.578 39.0293 16.4297 38.7564 17.1286C38.4642 17.8768 38.1198 18.4603 37.7814 18.8269C37.443 19.1934 37.1461 19.3281 36.875 19.3281C36.6039 19.3281 36.307 19.1934 35.9686 18.8269C35.6302 18.4603 35.2858 17.8768 34.9936 17.1286C34.7207 16.4297 34.5001 15.578 34.3344 14.6406ZM40.6172 14.6406H44.2793C43.2746 16.7563 41.3975 18.3697 39.1043 19.0146C39.3838 18.5931 39.6319 18.1082 39.8482 17.5543C40.1771 16.712 40.4385 15.7263 40.6172 14.6406Z" fill="white" stroke="white"/>
</svg>
