<svg width="50" height="51" viewBox="0 0 50 51" fill="none" xmlns="http://www.w3.org/2000/svg">
<path d="M24.875 47.875H21.75V40.0625C21.7488 38.8197 21.2545 37.6281 20.3757 36.7493C19.4969 35.8705 18.3053 35.3762 17.0625 35.375H10.8125C9.56968 35.3762 8.37812 35.8705 7.49931 36.7493C6.6205 37.6281 6.12624 38.8197 6.125 40.0625V47.875H3V40.0625C3.00248 37.9913 3.82638 36.0056 5.29097 34.541C6.75556 33.0764 8.74126 32.2525 10.8125 32.25H17.0625C19.1337 32.2525 21.1194 33.0764 22.584 34.541C24.0486 36.0056 24.8725 37.9913 24.875 40.0625V47.875ZM13.9375 16.625C14.8646 16.625 15.7709 16.8999 16.5417 17.415C17.3126 17.9301 17.9134 18.6621 18.2682 19.5187C18.623 20.3752 18.7158 21.3177 18.5349 22.227C18.3541 23.1363 17.9076 23.9715 17.2521 24.6271C16.5965 25.2826 15.7613 25.7291 14.852 25.9099C13.9427 26.0908 13.0002 25.998 12.1437 25.6432C11.2871 25.2884 10.5551 24.6876 10.04 23.9167C9.52492 23.1459 9.25 22.2396 9.25 21.3125C9.25 20.0693 9.74386 18.877 10.6229 17.9979C11.502 17.1189 12.6943 16.625 13.9375 16.625ZM13.9375 13.5C12.3923 13.5 10.8819 13.9582 9.59711 14.8166C8.31235 15.6751 7.311 16.8952 6.71969 18.3228C6.12838 19.7503 5.97367 21.3212 6.27512 22.8366C6.57656 24.3521 7.32063 25.7442 8.41323 26.8368C9.50583 27.9294 10.8979 28.6734 12.4134 28.9749C13.9288 29.2763 15.4997 29.1216 16.9272 28.5303C18.3548 27.939 19.5749 26.9377 20.4334 25.6529C21.2918 24.3681 21.75 22.8577 21.75 21.3125C21.75 20.2865 21.5479 19.2706 21.1553 18.3228C20.7627 17.3749 20.1872 16.5137 19.4618 15.7882C18.7363 15.0628 17.8751 14.4873 16.9272 14.0947C15.9794 13.7021 14.9635 13.5 13.9375 13.5Z" fill="white"/>
<path fill-rule="evenodd" clip-rule="evenodd" d="M38.8633 7.79175C38.5341 6.82156 37.6459 6.125 36.6 6.125V5.5H35.4V6.125C34.0745 6.125 33 7.24431 33 8.625C33 10.0057 34.0745 11.125 35.4 11.125V13.625C34.8784 13.625 34.4332 13.2781 34.2681 12.7917C34.1577 12.4662 33.8149 12.2957 33.5025 12.4107C33.19 12.5257 33.0263 12.8828 33.1367 13.2083C33.4659 14.1784 34.3541 14.875 35.4 14.875V15.5H36.6V14.875C37.9255 14.875 39 13.7557 39 12.375C39 10.9943 37.9255 9.875 36.6 9.875V7.375C37.1216 7.375 37.5668 7.72194 37.7319 8.20825C37.8423 8.53375 38.1851 8.70431 38.4975 8.58925C38.81 8.47425 38.9737 8.11719 38.8633 7.79175ZM35.4 7.375C34.7372 7.375 34.2 7.93463 34.2 8.625C34.2 9.31537 34.7372 9.875 35.4 9.875V7.375ZM36.6 13.625C37.2628 13.625 37.8 13.0654 37.8 12.375C37.8 11.6846 37.2628 11.125 36.6 11.125V13.625Z" fill="white" stroke="white" stroke-width="0.5"/>
<path fill-rule="evenodd" clip-rule="evenodd" d="M45 10.5C45 15.4706 40.9706 19.5 36 19.5C31.0294 19.5 27 15.4706 27 10.5C27 5.52942 31.0294 1.5 36 1.5C40.9706 1.5 45 5.52942 45 10.5ZM43.8 10.5C43.8 14.8078 40.3078 18.3 36 18.3C31.6922 18.3 28.2 14.8078 28.2 10.5C28.2 6.19218 31.6922 2.7 36 2.7C40.3078 2.7 43.8 6.19218 43.8 10.5Z" fill="white" stroke="white"/>
</svg>
