<svg width="162" height="58" viewBox="0 0 162 58" fill="none" xmlns="http://www.w3.org/2000/svg">
<path d="M67.2943 53.149C67.2756 53.1384 67.2559 53.1285 67.2338 53.1212C67.2252 53.1183 67.2104 53.1148 67.1928 53.1106C66.9733 53.0304 66.819 52.9908 66.819 52.9908L65.5902 52.6683L64.7349 52.4917L64.5482 52.4499C64.5482 52.4499 63.7715 52.2212 63.5554 52.0964C63.3489 51.9716 63.0146 51.3476 63.0146 51.3476C63.0146 51.3476 62.5821 50.0997 62.5231 49.9021C62.4543 49.7044 62.3167 48.519 62.3167 48.519C62.3167 48.519 62.2479 47.4477 62.3167 47.2813C62.375 47.1374 62.6063 46.9222 62.6115 46.9174C63.4458 46.1435 64.3998 45.5293 65.2185 44.722C65.5462 44.3988 65.8655 44.0622 66.128 43.678C66.7841 42.7174 67.1335 41.4014 67.1335 40.2198C67.1335 39.5692 66.8427 38.8467 66.8386 38.8368C66.6631 38.4022 66.6836 37.8614 66.5104 37.4068C66.2984 36.8505 65.9858 36.3367 65.5911 35.906C65.4463 35.748 65.2885 35.5976 65.1874 35.4052C64.9471 34.9477 64.917 34.4863 64.5886 34.0685C64.383 33.807 64.1662 33.5544 63.9486 33.304C63.2687 32.5213 62.208 31.8837 61.261 31.567C61.0776 31.5059 60.8816 31.4478 60.7494 31.3001C60.6063 31.1401 60.567 30.9077 60.5467 30.6886C60.536 30.5727 60.5724 29.2348 60.5985 29.2452C61.0582 29.4289 61.5424 29.5971 62.0459 29.6146C62.521 29.6312 63.0129 29.5091 63.3858 29.1974C63.4872 29.1127 63.5818 29.0101 63.6229 28.8804C63.7254 28.5578 63.4705 28.2443 63.2531 27.9933C62.8702 27.5517 62.5427 27.0566 62.2803 26.5256C62.0106 25.98 61.8313 25.6115 62.0145 25.0273C62.2322 24.3339 62.0555 23.516 61.805 22.8615C61.6637 22.4922 61.4804 22.1252 61.4205 21.7277C61.3557 21.2967 61.4242 20.9092 61.2616 20.4865C61.0783 20.0094 60.7551 19.6652 60.2878 19.5317C59.3226 19.2563 58.0686 19.2972 57.189 19.8569C56.4144 20.3497 56.416 21.4944 56.2906 22.3322C56.2619 22.5234 56.0278 22.6283 55.9135 22.7508C55.7295 22.9475 55.6156 23.1708 55.5644 23.4441C55.4309 24.1583 55.5301 24.9877 55.578 25.7075C55.6308 26.5004 55.7213 27.2904 55.849 28.0737C55.9434 28.6522 56.1648 29.2782 56.1637 29.8612C56.1628 30.2863 56.1255 30.7201 56.1333 31.1512C56.1333 31.1512 55.7991 31.0267 55.4649 30.9952C54.1175 30.8693 52.7389 31.8623 51.9005 32.924C51.3489 33.6223 50.9548 34.4497 50.3635 35.1139C49.7247 35.8315 48.9979 36.4713 48.5931 37.3811C48.2055 38.252 48.1344 39.2654 48.2905 40.2057C48.4711 41.2934 48.9247 42.3021 49.4364 43.2553C49.7424 43.8253 50.1517 44.1831 50.5496 44.6606L51.2968 45.5343C51.1018 46.4569 50.9524 47.3633 50.5527 48.2168C50.354 48.6413 49.8049 48.9707 49.4631 49.2613C48.9959 49.6584 48.5264 50.0522 48.0625 50.4531C47.8266 50.6612 47.6496 50.8276 47.6005 50.8901C47.3745 51.1709 47.1974 51.566 47.1974 51.566C47.1974 51.566 47.0205 51.7428 47.2859 51.9716C47.3146 52.0047 47.3557 52.0284 47.4002 52.0463C47.4449 52.0699 47.4758 52.0774 47.4967 52.0755C47.5872 52.0955 47.6674 52.0968 47.6674 52.0968C47.6674 52.0968 48.3574 52.1455 49.0129 52.4738C49.4104 52.6731 49.717 52.7873 49.8974 52.8468C49.948 52.8731 50.009 52.8912 50.0784 52.9007H50.0789C50.3838 52.9421 50.8484 52.8202 51.2783 52.5349C52.183 51.9346 54.3018 51.4589 54.7088 51.3344C55.1999 51.1845 54.9239 50.9411 54.9239 50.9411L54.601 50.6233C54.5747 50.5955 54.5428 50.5641 54.5057 50.5295L54.5055 50.5293C54.0359 50.0911 52.7714 49.1533 52.7714 49.1533C52.7135 49.0241 52.6555 48.8951 52.598 48.7656C52.5134 48.5747 52.5443 48.3739 52.5227 48.1723C52.4972 47.9345 52.4146 47.7074 52.3399 47.4834C52.269 47.2713 52.2007 47.0508 52.1908 46.8242C52.1806 46.5849 52.2484 46.377 52.2689 46.1655C52.2689 46.1655 52.3485 46.2726 52.6042 46.4701C53.7534 47.3939 55.4182 48.0352 56.8188 48.3336C58.3389 48.6574 59.6532 48.3375 61.0976 47.8637C61.0976 47.8637 61.4025 49.4652 61.4221 49.9646C61.4417 50.4741 61.3238 50.994 61.3238 50.994C61.3238 50.994 61.0472 51.6996 60.8827 52.166H60.8826L60.8815 52.1696C60.8251 52.3297 60.7826 52.4595 60.7691 52.5236L60.5218 53.3016L60.5217 53.3018L60.5214 53.3027L60.3249 53.9217L60.3271 53.9212L60.1869 54.3678C60.1869 54.3678 60.1214 54.7099 60.5231 54.9425C60.6582 55.0206 60.8462 55.0866 61.1075 55.1227C61.6312 55.1952 62.1573 55.2905 62.7252 55.3788L63.0146 55.4348L63.3697 55.4706C63.7419 55.5193 64.1328 55.5622 64.5571 55.5906C65.478 55.6521 66.0771 54.808 66.3696 54.2525C66.5107 53.9848 66.5807 53.7838 66.5807 53.7838C66.5807 53.7838 66.7983 53.4918 67.1648 53.4918C67.4972 53.4918 67.4756 53.2525 67.2943 53.149Z" fill="white"/>
<path d="M145.138 38.8097L161.364 22.8165H155.615L138.765 39.712V0.00483704H134.733V57.9375H138.765V45.1273L142.273 41.6356L156.219 57.9375H161.718L145.138 38.8097Z" fill="white"/>
<path d="M14.9924 53.9733C11.6244 53.9733 8.81858 52.5646 6.87832 49.8997C5.10226 47.4602 4.12408 44.0474 4.12408 40.2899C4.12408 32.0269 8.45049 26.6877 15.1461 26.6877C18.302 26.6877 21.2092 28.1662 23.332 30.8505C25.3299 33.3768 26.4755 36.7876 26.4755 40.2086C26.4755 48.0558 21.5389 53.9733 14.9924 53.9733ZM26.4755 29.11C24.4447 25.8063 20.4799 22.7313 15.4536 22.7313C11.2419 22.7313 7.37856 24.4097 4.57547 27.4571C1.58206 30.7114 0 35.2333 0 40.5338C0 45.1568 1.39385 49.4613 3.925 52.6546C6.66046 56.1056 10.4111 57.9297 14.7714 57.9297C19.9294 57.9297 24.3356 54.8466 26.4755 51.517V57.9297H30.446V-0.000907898H26.4755V29.11Z" fill="white"/>
<path d="M72.8706 36.1928C72.8706 43.1702 69.5279 49.2888 64.1472 52.1609C62.9077 52.8214 61.5912 53.2901 60.2341 53.5539C59.3619 53.7243 58.4761 53.8108 57.6011 53.8108C55.3463 53.8108 53.1985 53.2795 51.2172 52.2314L51.1985 52.2221C51.0028 52.131 50.7993 52.0218 50.5925 51.8969C50.5491 51.8557 50.4982 51.8238 50.4421 51.8031L50.4243 51.7891L50.4013 51.7752C49.6487 51.3217 48.9469 50.8013 48.3092 50.2234C44.559 46.9379 42.4084 41.8239 42.4084 36.1928V-0.00106049H38.2842V36.1928C38.2842 48.788 46.4081 57.9297 57.6011 57.9297C60.3846 57.9297 63.0226 57.3622 65.4424 56.2427C65.5629 56.1989 65.682 56.1432 65.8048 56.0735C72.8057 52.6976 76.9852 45.2667 76.9852 36.1928V-0.00106049H72.8706V36.1928Z" fill="white"/>
<path d="M126.797 48.02L127.068 47.6822L124.223 45.0665L123.945 45.3843C119.479 50.4766 114.892 53.8682 107.022 53.8682C101.074 53.8682 95.6002 51.3038 91.6071 46.6476C87.6187 41.9969 85.4226 35.6395 85.4226 28.7464C85.4226 22.4037 87.6094 16.1342 91.4226 11.5456C95.4281 6.7254 100.891 4.0708 106.806 4.0708C113.319 4.0708 118.721 6.61606 122.862 11.6359L123.146 11.9798L126.049 9.19791L125.799 8.8687C123.737 6.15197 120.942 3.90814 117.716 2.37949C114.438 0.825901 110.692 0.00466156 106.883 0.00466156C99.979 0.00466156 93.4901 3.11693 88.6117 8.76788C83.9122 14.2117 81.2168 21.5762 81.2168 28.9731C81.2168 45.2149 92.4904 57.9375 106.883 57.9375C116.747 57.9375 123.157 52.5444 126.797 48.02Z" fill="white"/>
</svg>
